<?xml version="1.0" encoding="utf-8"?>
<!-- Generator: Adobe Illustrator 17.0.0, SVG Export Plug-In . SVG Version: 6.00 Build 0)  -->
<!DOCTYPE svg PUBLIC "-//W3C//DTD SVG 1.1//EN" "http://www.w3.org/Graphics/SVG/1.1/DTD/svg11.dtd">
<svg version="1.1" id="Layer_1" xmlns="http://www.w3.org/2000/svg" xmlns:xlink="http://www.w3.org/1999/xlink" x="0px" y="0px"
	 width="453px" height="800px" viewBox="0 0 453 800" enable-background="new 0 0 453 800" xml:space="preserve">
<g id="logo">
	<g>
		<polygon fill="#323232" points="340.41,380 249.51,380 261.16,328 328.76,328 		"/>
		<rect x="100" y="429" fill="#323232" width="95" height="285"/>
		<polygon fill="#323232" points="322,282 267.92,282 294.96,119.77 		"/>
		<path fill="#323232" d="M0,0v800h453V0H0z M404,752H48V38h52v342h95.49l72.43-342H322l80.94,391H247v114h67v38h-67v133h157V752z"
			/>
		<path fill="#F0F0F0" d="M247,714V581h67v-38h-67V429h155.94L322,38h-54.08l-72.43,342H100V38H48v714h356v-38H247z M294.96,119.77
			L322,282h-54.08L294.96,119.77z M261.16,328h67.6l11.65,52h-90.9L261.16,328z M195,714h-95V429h95V714z"/>
	</g>
</g>
</svg>
